<?xml version="1.0" encoding="utf-8"?>
<!-- Generator: Adobe Illustrator 23.1.1, SVG Export Plug-In . SVG Version: 6.00 Build 0)  -->
<svg version="1.1" id="Ebene_1" xmlns="http://www.w3.org/2000/svg" xmlns:xlink="http://www.w3.org/1999/xlink" x="0px" y="0px"
	 viewBox="0 0 1115.4 100.7" style="enable-background:new 0 0 1115.4 100.7;" xml:space="preserve">
<g>
	<path d="M39,0.8c6.8,0,12.8,1.3,18,3.9c5.2,2.6,9.2,6.3,12,11c2.8,4.8,4.2,10.3,4.2,16.6c0,6.3-1.4,11.9-4.2,16.6
		c-2.8,4.8-6.8,8.4-12,11c-5.2,2.6-11.2,3.9-18,3.9H16.3v35.9H0v-99H39z M16.3,49.8h21.3c5.8,0,10.5-1.6,13.9-4.7
		c3.4-3.2,5.2-7.4,5.2-12.7c0-5.4-1.7-9.6-5.1-12.7c-3.4-3.1-8-4.7-13.9-4.7H16.3V49.8z"/>
	<path d="M85.7,0.7h16.3v41.7h45.9V0.7h16.3v99.1h-16.3v-43h-45.9v43H85.7V0.7z"/>
	<path d="M268.5,76.2c-4.1,7.6-9.7,13.6-17,18c-7.3,4.3-15.6,6.5-25,6.5c-9.3,0-17.6-2.2-25-6.5c-7.3-4.3-13-10.3-17-18
		c-4.1-7.6-6.1-16.3-6.1-25.9c0-9.6,2-18.2,6.1-25.9c4.1-7.6,9.7-13.6,17-18c7.3-4.3,15.6-6.5,25-6.5c9.3,0,17.6,2.2,25,6.5
		c7.3,4.3,13,10.3,17,18c4.1,7.6,6.1,16.3,6.1,25.9C274.5,59.9,272.5,68.6,268.5,76.2z M199,68.9c2.6,5.5,6.3,9.8,11.1,12.9
		c4.8,3.1,10.2,4.6,16.3,4.6c6.1,0,11.6-1.5,16.3-4.6c4.8-3.1,8.5-7.4,11.1-12.9c2.6-5.5,4-11.7,4-18.6c0-6.9-1.3-13.1-4-18.6
		c-2.6-5.5-6.3-9.8-11.1-12.9c-4.8-3.1-10.2-4.6-16.3-4.6c-6.1,0-11.6,1.5-16.3,4.6c-4.8,3.1-8.5,7.4-11.1,12.9
		c-2.6,5.5-4,11.7-4,18.6C195.1,57.2,196.4,63.4,199,68.9z"/>
	<path d="M275.9,0.8h77.3v14.4h-30.5v84.5h-16.3V15.3h-30.5V0.8z"/>
	<path d="M444.6,76.2c-4.1,7.6-9.7,13.6-17,18c-7.3,4.3-15.6,6.5-25,6.5c-9.3,0-17.6-2.2-25-6.5c-7.3-4.3-13-10.3-17-18
		c-4.1-7.6-6.1-16.3-6.1-25.9c0-9.6,2-18.2,6.1-25.9c4.1-7.6,9.7-13.6,17-18c7.3-4.3,15.6-6.5,25-6.5c9.3,0,17.6,2.2,25,6.5
		c7.3,4.3,13,10.3,17,18c4.1,7.6,6.1,16.3,6.1,25.9C450.7,59.9,448.7,68.6,444.6,76.2z M375.2,68.9c2.6,5.5,6.3,9.8,11.1,12.9
		c4.8,3.1,10.2,4.6,16.3,4.6c6.1,0,11.6-1.5,16.3-4.6c4.8-3.1,8.5-7.4,11.1-12.9c2.6-5.5,4-11.7,4-18.6c0-6.9-1.3-13.1-4-18.6
		c-2.6-5.5-6.3-9.8-11.1-12.9c-4.8-3.1-10.2-4.6-16.3-4.6c-6.1,0-11.6,1.5-16.3,4.6c-4.8,3.1-8.5,7.4-11.1,12.9
		c-2.6,5.5-4,11.7-4,18.6C371.2,57.2,372.5,63.4,375.2,68.9z"/>
	<path d="M467,24c3.9-7.6,9.5-13.5,16.8-17.7C491,2.1,499.5,0,509.2,0c11.4,0,20.9,3.1,28.4,9.3c7.5,6.2,12.2,14.6,13.9,25.2h-16.1
		c-1.6-6.3-4.7-11.3-9.4-14.8c-4.7-3.6-10.4-5.4-17.2-5.4c-6.2,0-11.7,1.5-16.3,4.6c-4.7,3.1-8.3,7.3-10.8,12.7
		c-2.5,5.4-3.8,11.7-3.8,18.7c0,7.1,1.2,13.3,3.7,18.7c2.5,5.4,6.1,9.7,10.7,12.7c4.7,3.1,10.1,4.6,16.3,4.6
		c7.9,0,14.5-2.2,19.9-6.5c5.3-4.3,8.2-10.4,8.6-18.1v-2.4h-27.4V45.7h43v54.1h-12.3l-1.7-14.1c-2.8,4.1-6.9,7.7-12.1,10.6
		c-5.2,2.9-11.4,4.4-18.6,4.4c-9.1,0-17.2-2.1-24.3-6.3c-7.1-4.2-12.6-10.1-16.5-17.7c-4-7.6-5.9-16.4-5.9-26.3
		C461.1,40.3,463.1,31.5,467,24z"/>
	<path d="M609.7,0.8c6.9,0,12.9,1.3,18.1,3.9c5.2,2.6,9.2,6.3,12.1,11c2.9,4.8,4.3,10.3,4.3,16.6c0,6.6-1.7,12.4-5.2,17.4
		c-3.5,5-8.2,8.5-14,10.6l20.9,39.4h-18.1L609,63.9H587v35.9h-16.3v-99H609.7z M587,49.8h21.5c5.8,0,10.5-1.6,13.9-4.7
		c3.4-3.2,5.2-7.4,5.2-12.7c0-5.3-1.7-9.5-5.2-12.7c-3.4-3.2-8.1-4.7-13.9-4.7H587V49.8z"/>
	<path d="M649.7,99.8l37-99h19.4l36.9,99h-17.4l-9.3-24.5h-40.6l-9.2,24.5H649.7z M680.3,61.5h31.5L696,18.4L680.3,61.5z"/>
	<path d="M792.2,0.8c6.8,0,12.8,1.3,18,3.9c5.2,2.6,9.2,6.3,12,11c2.8,4.8,4.2,10.3,4.2,16.6c0,6.3-1.4,11.9-4.2,16.6
		c-2.8,4.8-6.8,8.4-12,11c-5.2,2.6-11.2,3.9-18,3.9h-22.8v35.9h-16.3v-99H792.2z M769.5,49.8h21.3c5.8,0,10.5-1.6,13.9-4.7
		c3.4-3.2,5.2-7.4,5.2-12.7c0-5.4-1.7-9.6-5.1-12.7s-8-4.7-13.9-4.7h-21.5V49.8z"/>
	<path d="M838.9,0.7h16.3v41.7h45.9V0.7h16.3v99.1h-16.3v-43h-45.9v43h-16.3V0.7z"/>
	<path d="M1021.7,76.2c-4.1,7.6-9.7,13.6-17,18c-7.3,4.3-15.6,6.5-25,6.5c-9.3,0-17.6-2.2-25-6.5c-7.3-4.3-13-10.3-17-18
		c-4.1-7.6-6.1-16.3-6.1-25.9c0-9.6,2-18.2,6.1-25.9c4.1-7.6,9.7-13.6,17-18c7.3-4.3,15.6-6.5,25-6.5c9.3,0,17.6,2.2,25,6.5
		c7.3,4.3,13,10.3,17,18c4.1,7.6,6.1,16.3,6.1,25.9C1027.7,59.9,1025.7,68.6,1021.7,76.2z M952.2,68.9c2.6,5.5,6.3,9.8,11.1,12.9
		c4.8,3.1,10.2,4.6,16.3,4.6c6.1,0,11.6-1.5,16.3-4.6c4.8-3.1,8.5-7.4,11.1-12.9c2.6-5.5,4-11.7,4-18.6c0-6.9-1.3-13.1-4-18.6
		c-2.6-5.5-6.3-9.8-11.1-12.9c-4.8-3.1-10.2-4.6-16.3-4.6c-6.1,0-11.6,1.5-16.3,4.6c-4.8,3.1-8.5,7.4-11.1,12.9
		c-2.6,5.5-4,11.7-4,18.6C948.3,57.2,949.6,63.4,952.2,68.9z"/>
	<path d="M1054.3,67.6c0.5,5.8,2.8,10.5,7.1,14.1c4.3,3.5,9.9,5.3,16.8,5.3c6,0,10.9-1.3,14.6-3.9c3.7-2.6,5.6-6.2,5.6-10.8
		c0-3.3-1-5.9-3-7.8c-2-1.9-4.8-3.4-8.3-4.5c-3.5-1-8.4-2.1-14.7-3.3c-6.4-1.1-11.9-2.6-16.5-4.5c-4.6-1.8-8.3-4.6-11.2-8.4
		c-2.9-3.8-4.3-8.7-4.3-14.8c0-5.7,1.5-10.7,4.5-15.1c3-4.4,7.1-7.9,12.4-10.3c5.3-2.4,11.4-3.7,18.3-3.7c7.1,0,13.4,1.3,18.9,4
		c5.6,2.6,9.9,6.3,13.1,10.9c3.2,4.6,4.9,9.9,5.2,15.8h-16c-0.6-5.1-2.8-9.2-6.6-12.3c-3.9-3.1-8.8-4.7-14.7-4.7
		c-5.7,0-10.3,1.3-13.8,3.7c-3.4,2.5-5.2,6-5.2,10.5c0,3.2,1,5.7,3,7.6c2,1.9,4.7,3.3,8.1,4.2c3.4,0.9,8.2,2,14.6,3.1
		c6.4,1.1,11.9,2.6,16.5,4.5c4.6,1.9,8.4,4.7,11.3,8.3c2.9,3.7,4.4,8.5,4.4,14.6c0,5.8-1.6,11.1-4.7,15.7c-3.1,4.6-7.4,8.2-13,10.8
		c-5.6,2.6-11.9,3.9-18.9,3.9c-7.8,0-14.7-1.4-20.6-4.2c-5.9-2.8-10.6-6.8-13.9-11.8c-3.3-5-5.1-10.8-5.2-17.3L1054.3,67.6z"/>
</g>
</svg>
